<svg width="1855" height="1863" viewBox="0 0 1855 1863" fill="none" xmlns="http://www.w3.org/2000/svg">
<path opacity="0.1" d="M927.41 1863C1439.6 1863 1854.82 1445.95 1854.82 931.5C1854.82 417.047 1439.6 0 927.41 0C415.216 0 0 417.047 0 931.5C0 1445.95 415.216 1863 927.41 1863Z" fill="#DD517E"/>
<path opacity="0.1" d="M907.61 1542C1272.99 1542 1569.19 1244.49 1569.19 877.5C1569.19 510.507 1272.99 213 907.61 213C542.23 213 246.03 510.507 246.03 877.5C246.03 1244.49 542.23 1542 907.61 1542Z" fill="#DD517E"/>
<path opacity="0.1" d="M894.71 1319.39C1154.07 1319.39 1364.32 1108.21 1364.32 847.7C1364.32 587.193 1154.07 376.01 894.71 376.01C635.352 376.01 425.1 587.193 425.1 847.7C425.1 1108.21 635.352 1319.39 894.71 1319.39Z" fill="#DD517E"/>
<path opacity="0.1" d="M903.81 1136.57C1073.54 1136.57 1211.14 998.365 1211.14 827.88C1211.14 657.395 1073.54 519.19 903.81 519.19C734.076 519.19 596.48 657.395 596.48 827.88C596.48 998.365 734.076 1136.57 903.81 1136.57Z" fill="#DD517E"/>
<path opacity="0.1" d="M918.65 1051.11C1050.19 1051.11 1156.82 944.76 1156.82 813.57C1156.82 682.38 1050.19 576.03 918.65 576.03C787.112 576.03 680.48 682.38 680.48 813.57C680.48 944.76 787.112 1051.11 918.65 1051.11Z" fill="#DD517E"/>
</svg>
